<?xml version="1.0" encoding="UTF-8"?>
<svg version="1.1" xmlns="http://www.w3.org/2000/svg" width="3541" height="2678">
<path d="M0 0 C1.07185547 0.17160645 2.14371094 0.34321289 3.24804688 0.52001953 C77.67449297 12.84731278 143.43458984 48.28612578 196.5625 101.375 C197.44357422 102.24382812 198.32464844 103.11265625 199.23242188 104.0078125 C205.26137235 110.02341474 210.69935346 116.33956301 216 123 C217.00057229 124.20849728 218.00400962 125.41463484 219.01171875 126.6171875 C232.62461445 143.08520371 243.87339172 161.2206253 254 180 C254.47034668 180.87205078 254.94069336 181.74410156 255.42529297 182.64257812 C296.92927511 260.52164161 305.11106199 355.36611853 280.33984375 439.78515625 C269.06165176 476.7999295 252.66724307 511.59138123 230 543 C229.24420654 544.0530835 229.24420654 544.0530835 228.47314453 545.12744141 C219.78364969 557.17057793 210.44458804 568.66895945 199.85931396 579.10049438 C198.12349644 580.87383401 196.51135286 582.69775218 194.90478516 584.58789062 C190.4837255 589.66880667 185.73866558 594.40485185 180.97265625 599.16015625 C180.01518975 600.1182986 179.05787155 601.07658916 178.10069275 602.03501892 C176.10626253 604.03091287 174.11006259 606.02501452 172.11254883 608.01782227 C169.57325601 610.55141863 167.03848097 613.08947983 164.50502872 615.62891483 C162.53267816 617.60490703 160.55791737 619.57847679 158.58245659 621.55135918 C157.19873372 622.93410599 155.81699686 624.3188393 154.43531799 625.70362854 C153.577603 626.55819138 152.719888 627.41275421 151.83618164 628.29321289 C151.09340469 629.03519424 150.35062775 629.7771756 149.58534241 630.54164124 C147.56930531 632.45865713 145.53086773 634.27189403 143.42019367 636.07956034 C138.64281249 640.25177062 134.16805292 644.69480045 129.69155884 649.18539333 C128.32785795 650.54736346 128.32785795 650.54736346 126.93660754 651.93684813 C124.42192006 654.44848367 121.91034063 656.96320685 119.39927305 659.47846075 C116.6636532 662.2175286 113.92511673 664.95367785 111.18695354 667.69020277 C106.39141366 672.48367256 101.5977289 677.27899125 96.80526161 682.07553291 C89.67905803 689.20777807 82.54998242 696.3371473 75.42031894 703.4659336 C63.42646343 715.45847592 51.43493488 727.45334246 39.44473267 739.44953728 C27.5736293 751.32655849 15.70149172 763.20254434 3.82797241 775.07715034 C3.0895995 775.815592 2.35122658 776.55403366 1.59047873 777.31485233 C-2.15937886 781.06504825 -5.90925491 784.81522569 -9.65913808 788.56539602 C-36.21665399 815.1250121 -62.77185088 841.68694571 -89.32568359 868.25024414 C-115.12170956 894.05545507 -140.91878613 919.85961499 -166.71728516 945.66235352 C-167.51256475 946.45776463 -168.30784434 947.25317575 -169.12722331 948.07269024 C-177.11377906 956.06056451 -185.10035616 964.04841743 -193.08694892 972.0362547 C-209.35642955 988.30827152 -225.62576764 1004.58043086 -241.89501953 1020.85267639 C-243.01706045 1021.97492324 -243.01706045 1021.97492324 -244.16176885 1023.11984174 C-294.11023405 1073.07750697 -344.05537629 1123.03849433 -394 1173 C-389.00751508 1179.02655144 -383.59795649 1184.53856614 -378.05698681 1190.0604744 C-377.04459582 1191.07299837 -376.03242553 1192.08574305 -375.02045485 1193.09868711 C-372.24026192 1195.88028341 -369.4569604 1198.65875082 -366.67314368 1201.43671979 C-363.64454084 1204.46007664 -360.61886709 1207.48636243 -357.59282619 1210.51228309 C-352.28919024 1215.81491223 -346.98371075 1221.11569118 -341.67702293 1226.41526604 C-333.78565443 1234.29608713 -325.89718066 1242.17980097 -318.00934273 1250.06415559 C-304.73802414 1263.3294901 -291.46451938 1276.59263497 -278.18991661 1289.85468292 C-259.22375015 1308.80301665 -240.26179947 1327.7555657 -221.30071961 1346.70898927 C-213.69179874 1354.31480068 -206.08274161 1361.92047578 -198.47368336 1369.52614975 C-197.62831067 1370.37114767 -196.78293798 1371.21614559 -195.91194794 1372.0867495 C-175.78876768 1392.20095697 -155.66424391 1412.31382003 -135.53930664 1432.42626953 C-134.65872876 1433.30630301 -133.77815088 1434.18633649 -132.87088882 1435.09303765 C-112.32585731 1455.6253447 -91.78018325 1476.15700851 -71.23339844 1496.68756104 C-70.34970435 1497.57055793 -69.46601027 1498.45355483 -68.55553757 1499.36330921 C-64.09953947 1503.81578968 -59.64353678 1508.26826556 -55.18753377 1512.72074112 C-54.30686532 1513.60071279 -53.42619687 1514.48068447 -52.51884149 1515.38732195 C-50.74129496 1517.16346172 -48.96374766 1518.93960075 -47.18619962 1520.71573902 C-17.81983793 1550.05885224 11.54312658 1579.40536151 40.90235247 1608.7556145 C45.04825026 1612.90023569 49.19419412 1617.04481079 53.34016991 1621.18935394 C54.56410409 1622.41286611 54.56410409 1622.41286611 55.81276422 1623.6610957 C68.94624082 1636.78981504 82.08341622 1649.91482721 95.22206905 1663.03836619 C108.42558942 1676.22681359 121.62557211 1689.41879298 134.8219134 1702.61442384 C142.66196621 1710.45382294 150.50481992 1718.2903956 158.35169645 1726.12296457 C163.5944759 1731.35673095 168.83360927 1736.59412838 174.06981297 1741.83447351 C177.05229284 1744.81910194 180.03631992 1747.80213601 183.02482251 1750.78073493 C185.74815321 1753.49510082 188.46675775 1756.21411174 191.18180302 1758.9367644 C192.60982006 1760.36643697 194.04271683 1761.79123051 195.47585717 1763.21576732 C201.40336853 1769.17229443 206.76792239 1775.42853635 212 1782 C212.9763317 1783.1740257 213.95567923 1784.34557032 214.94140625 1785.51171875 C260.7584799 1840.61928596 289.9038709 1915.86236412 290.203125 1987.75390625 C290.20882507 1988.8530687 290.21452515 1989.95223114 290.22039795 1991.08470154 C290.2297917 1993.40500953 290.23635936 1995.72533053 290.24023438 1998.0456543 C290.24983032 2001.50139472 290.28086302 2004.95651076 290.3125 2008.41210938 C290.40800062 2028.45561423 288.73173392 2048.33374167 284.75 2068 C284.43530762 2069.58252563 284.43530762 2069.58252563 284.11425781 2071.19702148 C278.52295611 2098.45360875 269.99318983 2124.87856132 258 2150 C257.68208496 2150.66757324 257.36416992 2151.33514648 257.03662109 2152.02294922 C249.72842592 2167.243721 241.72830471 2182.18138536 232 2196 C231.608125 2196.56170898 231.21625 2197.12341797 230.8125 2197.70214844 C225.4692979 2205.35378082 219.96225389 2212.81443709 214 2220 C213.16855469 2221.00546875 212.33710938 2222.0109375 211.48046875 2223.046875 C190.05392704 2248.76416623 165.84147698 2271.33071517 138 2290 C137.28714844 2290.48146484 136.57429688 2290.96292969 135.83984375 2291.45898438 C79.47564709 2329.21997123 13.03492124 2348.21261893 -54.5 2348.25 C-56.14054855 2348.25101212 -56.14054855 2348.25101212 -57.8142395 2348.25204468 C-74.72453862 2348.23548462 -91.27498259 2347.72156578 -108 2345 C-109.60560791 2344.74259033 -109.60560791 2344.74259033 -111.24365234 2344.47998047 C-143.85332307 2339.07962209 -175.19908262 2329.28023047 -205 2315 C-205.82838379 2314.60699707 -206.65676758 2314.21399414 -207.51025391 2313.80908203 C-251.28842241 2292.93388771 -286.09248244 2262.08162727 -320.06383589 2228.0584303 C-323.07245935 2225.04634102 -326.08401906 2222.03718969 -329.09519309 2219.02765059 C-334.36232266 2213.76258565 -339.62760758 2208.49568172 -344.8916626 2203.22754288 C-352.71902902 2195.39412099 -360.54928218 2187.56358939 -368.38011476 2179.7336327 C-381.55516954 2166.55988942 -394.72790238 2153.38382671 -407.89930153 2140.20642853 C-420.93573546 2127.1640723 -433.97320765 2114.12275539 -447.01206017 2101.08281708 C-447.82356576 2100.27124274 -448.63507136 2099.4596684 -449.47116804 2098.6235009 C-453.5926032 2094.5017274 -457.71405685 2090.37997237 -461.83551761 2086.25822446 C-491.00798766 2057.08365545 -520.17813986 2027.90676995 -549.34692383 1998.72851562 C-577.67940651 1970.38684474 -606.01294223 1942.04622726 -634.34790039 1913.70703125 C-635.22170731 1912.8330928 -636.09551424 1911.95915435 -636.99580016 1911.05873292 C-645.77113799 1902.28207653 -654.5464972 1893.50544152 -663.32187206 1884.72882216 C-681.19742717 1866.85073101 -699.07283967 1848.97249726 -716.94816589 1831.09417725 C-717.76999763 1830.27220822 -718.59182937 1829.45023919 -719.4385651 1828.60336201 C-774.29476656 1773.73796393 -829.14764359 1718.86924218 -884 1664 C-887.55424782 1665.67473279 -889.85452034 1667.60985532 -892.64117432 1670.40739441 C-893.56908279 1671.33399872 -894.49699127 1672.26060303 -895.45301819 1673.21528625 C-896.47430157 1674.24524265 -897.49549294 1675.27529028 -898.51660156 1676.30541992 C-899.59735611 1677.38837621 -900.67855953 1678.4708847 -901.76017761 1679.55297852 C-904.08809959 1681.88383352 -906.41282956 1684.21781034 -908.73514557 1686.55425072 C-912.41234266 1690.25373694 -916.09663546 1693.94610147 -919.78192139 1697.63752747 C-925.61615134 1703.48314201 -931.44569307 1709.33340631 -937.27320933 1715.18571311 C-947.69248042 1725.649245 -958.11722204 1736.107319 -968.54731536 1746.56006318 C-972.20400049 1750.22512083 -975.85785684 1753.89296825 -979.5094142 1757.56313455 C-981.790638 1759.85506652 -984.0739447 1762.14491526 -986.35775185 1764.43427277 C-987.40991443 1765.48988103 -988.46120573 1766.54635862 -989.51151848 1767.60380745 C-990.95560714 1769.05748347 -992.40288323 1770.50791667 -993.85089111 1771.95768738 C-994.65687366 1772.76718936 -995.46285622 1773.57669134 -996.29326248 1774.41072369 C-998.3738141 1776.40098798 -1000.47290201 1778.28270624 -1002.655164 1780.15533859 C-1007.02327206 1783.96827922 -1011.13368229 1787.99694159 -1015.22411346 1792.10385895 C-1016.01604121 1792.89493245 -1016.80796896 1793.68600594 -1017.62389451 1794.50105137 C-1020.27210988 1797.14762479 -1022.91674039 1799.79775109 -1025.56140137 1802.44787598 C-1027.48014131 1804.36745601 -1029.39964094 1806.28627575 -1031.31910658 1808.2051301 C-1035.48955826 1812.37504995 -1039.65815997 1816.54681194 -1043.82554436 1820.71979713 C-1050.02266471 1826.92522264 -1056.22267703 1833.12775267 -1062.42330046 1839.32967757 C-1072.85658536 1849.76529534 -1083.28761167 1860.20316787 -1093.71742249 1870.64225769 C-1107.96140996 1884.89885661 -1122.20868454 1899.15216715 -1136.45683593 1913.40460449 C-1143.09688165 1920.04665639 -1149.73676669 1926.68886891 -1156.3766098 1933.33112335 C-1157.04127614 1933.99603071 -1157.70594249 1934.66093806 -1158.39075023 1935.34599413 C-1174.20613581 1951.1671892 -1190.0199473 1966.98995735 -1205.83349609 1982.81298828 C-1206.52528878 1983.50519462 -1207.21708147 1984.19740095 -1207.92983758 1984.91058324 C-1218.45328595 1995.44032796 -1228.97665226 2005.9701547 -1239.5 2016.5 C-1250.72212142 2027.72905043 -1261.94427302 2038.95807069 -1273.16650391 2050.18701172 C-1273.85792319 2050.87884559 -1274.54934247 2051.57067946 -1275.26171385 2052.283478 C-1291.04816846 2068.07938145 -1306.83507319 2083.87483468 -1322.6233902 2099.66887665 C-1323.28699115 2100.33271859 -1323.9505921 2100.99656054 -1324.63430217 2101.68051891 C-1331.25934406 2108.30794618 -1337.88446468 2114.93529474 -1344.50970283 2121.56252581 C-1358.7417191 2135.79885803 -1372.97235414 2150.036567 -1387.20019819 2164.27706902 C-1397.57074189 2174.65679714 -1407.94299931 2185.03481005 -1418.31704748 2195.41103566 C-1424.48025664 2201.57565953 -1430.64204247 2207.7416983 -1436.80181841 2213.90975274 C-1440.91718864 2218.03038214 -1445.03437333 2222.14919265 -1449.15302976 2226.26653741 C-1451.49908464 2228.61195176 -1453.84405757 2230.95842065 -1456.18737119 2233.3065756 C-1458.71456779 2235.8387514 -1461.24483478 2238.36781953 -1463.77588654 2240.89614105 C-1464.85996315 2241.98458696 -1464.85996315 2241.98458696 -1465.9659403 2243.09502167 C-1469.95254693 2247.06999755 -1474.03893816 2250.86809344 -1478.30757686 2254.5392653 C-1480.40232897 2256.34725115 -1482.41528077 2258.23657599 -1484.4375 2260.125 C-1535.1693855 2305.8070041 -1600.96558788 2332.59825917 -1668 2342 C-1669.22396484 2342.17789063 -1669.22396484 2342.17789063 -1670.47265625 2342.359375 C-1758.57697712 2354.55173571 -1850.89052578 2327.60478718 -1921.30053711 2274.4362793 C-1927.72326271 2269.51425831 -1933.93323882 2264.35457248 -1940 2259 C-1940.73758545 2258.34999023 -1941.4751709 2257.69998047 -1942.23510742 2257.03027344 C-1948.54039916 2251.41869375 -1954.59248741 2245.5906261 -1960.5625 2239.625 C-1961.44357422 2238.75617187 -1962.32464844 2237.88734375 -1963.23242188 2236.9921875 C-1969.26137235 2230.97658526 -1974.69935346 2224.66043699 -1980 2218 C-1981.00057229 2216.79150272 -1982.00400962 2215.58536516 -1983.01171875 2214.3828125 C-1999.88876222 2193.96359723 -2013.71368635 2170.93467391 -2025 2147 C-2025.54503174 2145.84612793 -2025.54503174 2145.84612793 -2026.10107422 2144.66894531 C-2047.3499511 2099.34404886 -2058.26385155 2049.69464683 -2058.1875 1999.625 C-2058.18659363 1998.51499634 -2058.18659363 1998.51499634 -2058.18566895 1997.38256836 C-2058.04713543 1934.40726056 -2040.92351778 1870.35209392 -2007 1817 C-2006.54157715 1816.27796387 -2006.0831543 1815.55592773 -2005.61083984 1814.81201172 C-1987.0394974 1785.80803697 -1964.1396429 1760.97429512 -1939.85009766 1736.72070312 C-1938.28447256 1735.15371896 -1936.71905939 1733.58652304 -1935.15383911 1732.01913452 C-1930.94997054 1727.81075437 -1926.74300242 1723.6054862 -1922.53528261 1719.40095711 C-1918.11196961 1714.9801973 -1913.6911212 1710.55697387 -1909.26986694 1706.13415527 C-1901.38334416 1698.24570511 -1893.49431987 1690.35976129 -1885.60428075 1682.47482842 C-1878.46507658 1675.34010152 -1871.32851336 1668.20274179 -1864.19384766 1661.06347656 C-1855.87404592 1652.73831366 -1847.55255459 1644.41484429 -1839.22859609 1636.09383726 C-1834.8344545 1631.70125028 -1830.44098098 1627.30800081 -1826.04927444 1622.91297913 C-1821.92610552 1618.78691423 -1817.80048395 1614.66331731 -1813.67298508 1610.54158401 C-1812.1628856 1609.03280227 -1810.65362805 1607.5231773 -1809.14529419 1606.01263046 C-1807.07985828 1603.9444445 -1805.01133842 1601.87939099 -1802.94204712 1599.81506348 C-1802.05749814 1598.92716841 -1802.05749814 1598.92716841 -1801.15507948 1598.02133608 C-1798.31525489 1595.19462705 -1795.42768914 1592.48186356 -1792.37976873 1589.88011789 C-1787.53780212 1585.65820672 -1783.01290081 1581.14858363 -1778.47964478 1576.59989929 C-1777.54758201 1575.66869078 -1776.61551925 1574.73748226 -1775.65521216 1573.77805531 C-1773.07615987 1571.20122941 -1770.50022301 1568.62130903 -1767.92479584 1566.04086067 C-1765.11929737 1563.23101062 -1762.31087158 1560.42408893 -1759.50281715 1557.61679363 C-1754.58433785 1552.69884662 -1749.66771055 1547.77905423 -1744.75229645 1542.85804367 C-1737.44286872 1535.54031726 -1730.1305549 1528.22547992 -1722.81762785 1520.91125074 C-1710.51361361 1508.60490267 -1698.21185828 1496.29629893 -1685.91131592 1483.98648071 C-1669.11349146 1467.1760498 -1652.31238422 1450.36890276 -1635.5103991 1433.56263053 C-1627.68195206 1425.73217724 -1619.85366565 1417.90156336 -1612.02542114 1410.07090759 C-1611.24177128 1409.28701671 -1610.45812141 1408.50312583 -1609.65072457 1407.69548068 C-1591.00103933 1389.03998498 -1572.35292762 1370.38291661 -1553.70507812 1351.72558594 C-1552.88921349 1350.90930766 -1552.07334886 1350.09302938 -1551.23276106 1349.2520154 C-1538.82177984 1336.83473776 -1526.41088065 1324.41737815 -1514 1312 C-1500.76502047 1298.75809153 -1487.53001079 1285.5162132 -1474.29492188 1272.27441406 C-1473.47949595 1271.45857355 -1472.66407003 1270.64273304 -1471.82393423 1269.80217008 C-1453.20825273 1251.17704079 -1434.59212171 1232.55236112 -1415.97457886 1213.92909241 C-1415.19218458 1213.14645713 -1414.40979029 1212.36382186 -1413.60368709 1211.55747036 C-1405.79294996 1203.74434792 -1397.98213415 1195.93130416 -1390.17120083 1188.11837785 C-1373.38773098 1171.33059078 -1356.60564308 1154.54142554 -1339.82634228 1137.74947146 C-1327.59625244 1125.51020068 -1315.36445184 1113.27264194 -1303.13085985 1101.03687167 C-1295.86120248 1093.76579875 -1288.59296971 1086.49330835 -1281.32674218 1079.21880784 C-1276.4738418 1074.36065322 -1271.61913212 1069.50431166 -1266.76294755 1064.6494399 C-1263.99565215 1061.88278581 -1261.22915818 1059.11534316 -1258.46487927 1056.34567487 C-1255.48607879 1053.36110084 -1252.50341057 1050.38042204 -1249.52035522 1047.40010071 C-1248.66447681 1046.54130943 -1247.8085984 1045.68251816 -1246.92678428 1044.79770291 C-1242.75035585 1040.63165023 -1238.49655151 1036.64911259 -1234.02733672 1032.80089623 C-1230.03709142 1029.2563357 -1226.30838357 1025.44155289 -1222.54211426 1021.66236877 C-1221.61680499 1020.73791376 -1220.69149572 1019.81345874 -1219.73814678 1018.86098993 C-1217.1780353 1016.30310463 -1214.62103897 1013.74212529 -1212.06455266 1011.1806175 C-1209.27958644 1008.39129938 -1206.49169256 1005.60490994 -1203.70417023 1002.81814671 C-1198.82174044 997.9362492 -1193.94116259 993.05250644 -1189.0617981 988.16754532 C-1181.80597552 980.9034238 -1174.54726661 973.6421916 -1167.28794456 966.38156745 C-1155.07408596 954.16537505 -1142.86248625 941.94692702 -1130.65209961 929.7272644 C-1113.97735161 913.03990975 -1097.29932066 896.35583915 -1080.62041187 879.6726433 C-1072.84923718 871.89946237 -1065.07822313 864.12612084 -1057.30725098 856.35273743 C-1056.52933526 855.57458069 -1055.75141953 854.79642396 -1054.94993061 853.99468672 C-1036.43683812 835.47578382 -1017.92531919 816.95530823 -999.4140625 798.43457031 C-998.60417724 797.6242714 -997.79429198 796.8139725 -996.95986474 795.97911908 C-984.63984896 783.65280688 -972.31991521 771.32641271 -960 759 C-946.86202568 745.85509674 -933.72402121 732.71022362 -920.5859375 719.56542969 C-919.7764878 718.7555654 -918.9670381 717.94570111 -918.13305962 717.11129548 C-899.6537264 698.62251442 -881.17394363 680.13418301 -862.69274902 661.64726257 C-861.91607972 660.87035228 -861.13941042 660.09344198 -860.33920568 659.29298895 C-852.58561049 651.53700845 -844.83193661 643.78110662 -837.07814524 636.02532225 C-820.41763701 619.36049686 -803.7585107 602.69429335 -787.10217166 586.02530083 C-774.96169849 573.87564658 -762.81951443 561.7277045 -750.67553902 549.58155084 C-743.45920445 542.36380076 -736.24429445 535.14463331 -729.03138986 527.92345553 C-724.21403308 523.10084431 -719.3948668 518.28004639 -714.57422575 513.46071811 C-711.82723118 510.71436481 -709.08103787 507.96722322 -706.33705997 505.21785557 C-703.38004303 502.25506449 -700.41915777 499.2961694 -697.45788574 496.33763123 C-696.60842471 495.48525733 -695.75896368 494.63288344 -694.88376141 493.75468004 C-690.67530334 489.55675264 -686.38854888 485.53549359 -681.88421351 481.65777302 C-678.77082363 478.91854325 -675.85579356 475.99015057 -672.93157196 473.05182648 C-672.26458387 472.38569263 -671.59759577 471.71955879 -670.91039592 471.03323907 C-668.68719339 468.81167431 -666.46757127 466.58656751 -664.2479248 464.3614502 C-662.63414023 462.74738545 -661.02013382 461.13354248 -659.40592527 459.51990175 C-654.97918435 455.09345595 -650.55556191 450.66390512 -646.13243842 446.233845 C-641.84904356 441.94472576 -637.56328143 437.65797446 -633.27755864 433.37118153 C-624.51215268 424.60344391 -615.74900491 415.83345266 -606.98707581 407.0622406 C-595.02000413 395.08255124 -583.04963996 383.10615591 -571.07840031 371.13063174 C-565.49789309 365.54811846 -559.91754663 359.96544449 -554.33724213 354.38272858 C-553.77865748 353.82390292 -553.22007284 353.26507726 -552.64456138 352.68931749 C-539.3561416 339.39508939 -526.06929658 326.09928772 -512.78271484 312.80322266 C-512.20154051 312.22163468 -511.62036618 311.64004671 -511.02158051 311.04083485 C-502.18099272 302.19395081 -493.34048707 293.34698469 -484.5 284.5 C-475.07247498 275.06554589 -465.64491975 265.63112197 -456.21728516 256.19677734 C-455.63642601 255.61550361 -455.05556687 255.03422987 -454.45710593 254.43534178 C-441.19309476 241.16188047 -427.92863274 227.88887013 -414.66275787 214.61727142 C-414.10506905 214.0593416 -413.54738022 213.50141178 -412.97279174 212.926575 C-407.40487574 207.35627352 -401.83688096 201.78605081 -396.2687686 196.21594561 C-384.31154198 184.25440465 -372.35569568 172.29148869 -360.40264525 160.32577442 C-351.69001078 151.60395115 -342.9756589 142.88384711 -334.25951707 134.16552889 C-329.53828228 129.44300483 -324.81794252 124.71959467 -320.09976387 119.99401665 C-315.78045536 115.66795987 -311.45884698 111.34421455 -307.13540274 107.02229112 C-305.57204567 105.45866263 -304.00953894 103.89418339 -302.44797176 102.32876736 C-300.32377108 100.19957449 -298.19648811 98.07350807 -296.06842804 95.94817352 C-295.46443186 95.34126448 -294.86043568 94.73435544 -294.23813659 94.10905522 C-289.98908443 89.87468076 -285.54589494 85.91206149 -281 82 C-280.02417969 81.14277344 -279.04835938 80.28554688 -278.04296875 79.40234375 C-228.63550368 36.75376583 -168.17884528 10.42451801 -104 0 C-102.90445801 -0.17934082 -101.80891602 -0.35868164 -100.68017578 -0.54345703 C-68.13437308 -5.58167737 -32.48666846 -5.25881794 0 0 Z " fill="#FFFEFE" transform="translate(2891,330)"/>
<path d="M0 0 C2.17745451 0.98838057 4.36480328 1.9501568 6.55615234 2.90722656 C25.18976389 11.19475347 42.90349888 21.99132166 59.32568359 34.05566406 C60.01178711 34.5592041 60.69789063 35.06274414 61.40478516 35.58154297 C73.80920432 44.7508851 85.90504441 54.40140478 96.69433594 65.45288086 C98.33639568 67.06618858 100.04549105 68.53497152 101.82568359 69.99316406 C104.99532991 72.66492345 107.64689607 75.58602162 110.32568359 78.74316406 C112.22626073 80.94070638 114.19048585 83.06599442 116.17797852 85.18481445 C164.01312598 136.3788666 192.2232033 204.14988824 201.32568359 273.05566406 C201.44427734 273.9515625 201.56287109 274.84746094 201.68505859 275.77050781 C212.50985404 362.49773799 187.30190971 453.80395346 134.32568359 523.05566406 C133.87338379 523.65217773 133.42108398 524.24869141 132.95507812 524.86328125 C127.24512225 532.37520759 121.26161312 539.50279283 114.81005859 546.38769531 C112.75789076 548.59151705 110.77787575 550.82666231 108.82568359 553.11816406 C101.94590088 561.03733841 94.3270978 568.28523666 86.32568359 575.05566406 C84.98183594 576.23322266 84.98183594 576.23322266 83.61083984 577.43457031 C28.39185713 625.52303954 -38.94238958 649.99519998 -110.67431641 660.05566406 C-110.08344238 660.12035889 -109.49256836 660.18505371 -108.88378906 660.25170898 C-50.03815747 666.82711286 6.73736184 685.62531933 55.32568359 720.05566406 C56.11604004 720.61543945 56.90639648 721.17521484 57.72070312 721.75195312 C68.37602285 729.35047099 78.59765833 737.30044133 88.32568359 746.05566406 C88.87417969 746.54776367 89.42267578 747.03986328 89.98779297 747.546875 C100.6722679 757.17292305 110.94955916 767.1410264 120.32568359 778.05566406 C120.86773438 778.68569336 121.40978516 779.31572266 121.96826172 779.96484375 C163.52021037 828.64358117 190.13612188 887.70809621 200.57568359 950.74316406 C200.72682617 951.64228516 200.87796875 952.54140625 201.03369141 953.46777344 C203.93564518 972.16343047 204.62081101 990.9276699 204.57177925 1009.81304073 C204.5732626 1012.12512139 204.57562407 1014.43720161 204.57877225 1016.7492806 C204.58485825 1023.06165183 204.57860384 1029.37395774 204.57021598 1035.68632406 C204.56301751 1041.85729175 204.56736728 1048.02825779 204.57038311 1054.1992272 C204.57628693 1066.95963904 204.57280298 1079.7200325 204.56409454 1092.48044205 C204.55531742 1105.39865518 204.55095179 1118.3168588 204.55189896 1131.235075 C204.55195634 1132.05305564 204.55201373 1132.87103629 204.55207285 1133.71380423 C204.55238563 1137.88518713 204.55276952 1142.05657003 204.55317852 1146.22795293 C204.55598859 1176.3686363 204.54914898 1206.50931122 204.53714371 1236.64999199 C204.52528776 1266.48723836 204.51759132 1296.32448111 204.51543808 1326.16172981 C204.51533484 1327.55308445 204.51533484 1327.55308445 204.51522952 1328.97254727 C204.5146031 1337.44480961 204.51402772 1345.91707196 204.51351357 1354.38933431 C204.51223499 1375.4478475 204.51031647 1396.5063606 204.50796318 1417.5648737 C204.50785655 1418.52369695 204.50774991 1419.48252021 204.50764004 1420.47039871 C204.50240047 1467.08044621 204.48978677 1513.69049131 204.4765625 1560.30053711 C204.47197907 1576.4697062 204.46742829 1592.6388753 204.4630127 1608.80804443 C204.46260185 1610.31232092 204.46260185 1610.31232092 204.4621827 1611.84698682 C204.44948944 1658.48601441 204.44206328 1705.1250424 204.43594705 1751.76407126 C204.43554592 1754.81660403 204.43514132 1757.86913681 204.43473558 1760.92166958 C204.43050861 1792.73464562 204.4265345 1824.54762169 204.42267004 1856.36059777 C204.42255961 1857.26951643 204.42244918 1858.17843509 204.42233541 1859.11489673 C204.42213464 1860.76871163 204.42193415 1862.42252652 204.4217341 1864.07634142 C204.40305281 2018.06945344 204.36272442 2172.06255331 204.32568359 2326.05566406 C-24.03431641 2326.05566406 -252.39431641 2326.05566406 -487.67431641 2326.05566406 C-487.79552084 1990.1577874 -487.79552084 1990.1577874 -487.8188113 1861.75621557 C-487.81913942 1859.95371014 -487.81946769 1858.15120471 -487.81979607 1856.34869927 C-487.8199607 1855.444906 -487.82012533 1854.54111273 -487.82029494 1853.60993179 C-487.82611933 1821.68041293 -487.83213991 1789.75089412 -487.83850417 1757.82137537 C-487.83910986 1754.77398349 -487.83971039 1751.72659161 -487.84030967 1748.67919973 C-487.84950123 1702.03688416 -487.86119769 1655.39457096 -487.88031006 1608.7522583 C-487.88072075 1607.74986428 -487.88113145 1606.74747025 -487.88155459 1605.71470065 C-487.88819139 1589.55399894 -487.89504234 1573.39329732 -487.90192173 1557.2325957 C-487.92174257 1510.66283436 -487.93996972 1464.09307484 -487.94773579 1417.52330971 C-487.94789639 1416.56484873 -487.948057 1415.60638776 -487.94822247 1414.61888251 C-487.95172044 1393.57407649 -487.95440469 1372.52927045 -487.95631935 1351.48446423 C-487.95710418 1343.01566032 -487.95800604 1334.54685642 -487.95894814 1326.07805252 C-487.95909856 1324.6877759 -487.95909856 1324.6877759 -487.95925202 1323.26941288 C-487.96253675 1293.4478014 -487.97533428 1263.62620339 -487.99316303 1233.80459733 C-488.01109135 1203.74318396 -488.01960479 1173.68178363 -488.01518837 1143.62036478 C-488.0145792 1139.4579866 -488.01407703 1135.29560841 -488.01363945 1131.13323021 C-488.01354981 1130.31734744 -488.01346017 1129.50146468 -488.01336781 1128.66085819 C-488.0122297 1115.78682246 -488.02114543 1102.91281448 -488.03434599 1090.0387863 C-488.04714457 1077.35238058 -488.0490891 1064.66601052 -488.03981185 1051.97960137 C-488.03514835 1045.20422506 -488.03540852 1038.42895187 -488.04896595 1031.65357976 C-488.2221611 939.60245773 -467.99328166 851.91835843 -405.67431641 781.05566406 C-405.04009766 780.3221875 -404.40587891 779.58871094 -403.75244141 778.83300781 C-402.07280605 776.89526335 -400.37606519 774.97399905 -398.67431641 773.05566406 C-398.02462891 772.31316406 -397.37494141 771.57066406 -396.70556641 770.80566406 C-388.00820703 760.97386651 -378.80331016 751.42532163 -368.67431641 743.05566406 C-368.14563965 742.61319336 -367.61696289 742.17072266 -367.07226562 741.71484375 C-351.16642601 728.42489836 -334.60410998 716.46890142 -316.67431641 706.05566406 C-315.93713379 705.62656738 -315.19995117 705.1974707 -314.44042969 704.75537109 C-270.93580078 679.60857203 -222.66648405 664.73711738 -172.67431641 660.05566406 C-173.62794067 659.9210376 -173.62794067 659.9210376 -174.60083008 659.78369141 C-248.64346959 649.19392571 -316.88860508 623.13635905 -372.52978516 572.01660156 C-374.48066524 570.23273672 -376.47179689 568.51613612 -378.48681641 566.80566406 C-382.21570548 563.55425469 -385.73172104 560.10678483 -389.23681641 556.61816406 C-390.03212769 555.82974121 -390.03212769 555.82974121 -390.84350586 555.02539062 C-394.98489687 550.8680491 -398.85645718 546.51027982 -402.67431641 542.05566406 C-403.48582153 541.11219116 -403.48582153 541.11219116 -404.3137207 540.1496582 C-448.30487055 488.62819207 -475.83993898 425.09754578 -484.67431641 358.05566406 C-484.79291016 357.1689502 -484.91150391 356.28223633 -485.03369141 355.36865234 C-495.34020767 274.00545476 -473.79091442 188.55390816 -427.67431641 121.05566406 C-427.26503906 120.45351074 -426.85576172 119.85135742 -426.43408203 119.23095703 C-416.63367352 104.9051586 -405.51609184 91.72241079 -393.67431641 79.05566406 C-392.72282709 78.00432913 -391.77364404 76.9509028 -390.82666016 75.89550781 C-386.35699192 70.92359525 -381.87912932 66.11647893 -376.74462891 61.81347656 C-374.27521144 59.71680135 -371.92140681 57.5117773 -369.54931641 55.30566406 C-316.35169951 6.93090804 -244.16776972 -23.39235287 -172.67431641 -28.94433594 C-171.58231934 -29.03046143 -170.49032227 -29.11658691 -169.36523438 -29.20532227 C-111.36626401 -33.45071685 -53.04359206 -24.13488755 0 0 Z " fill="#FFFFFF" transform="translate(487.67431640625,350.9443359375)"/>
<path d="M0 0 C6.0312732 4.99738619 11.5515449 10.4106731 17.08167839 15.95304394 C18.09651549 16.96653291 19.11157076 17.97980346 20.12682313 18.99287644 C22.91481073 21.77614569 25.69968784 24.56250904 28.48406172 27.34939281 C31.51435798 30.38132438 34.54754263 33.41036409 37.58035576 36.43977767 C42.89507563 41.74934578 48.20792725 47.06077757 53.51955795 52.37343597 C61.41829291 60.27369545 69.31986784 68.17110992 77.22198391 76.0679873 C92.15619674 90.99252616 107.08697687 105.92049601 122.01663981 120.84958615 C133.54552032 132.37800722 145.07519966 143.90562879 156.60544205 155.43268776 C159.92366295 158.75001113 163.24188 162.06733836 166.56009591 165.38466674 C167.38500005 166.20934983 168.20990418 167.03403292 169.05980542 167.88370641 C192.26475671 191.08250298 215.46860341 214.2824039 238.67025566 237.48449993 C239.54511986 238.35937971 240.41998405 239.23425948 241.32135929 240.13565076 C245.75559491 244.56996949 250.18982256 249.00429619 254.62404846 253.43862464 C255.50471158 254.31930772 256.38537471 255.19999079 257.2927246 256.10736123 C259.07364019 257.88831725 260.8545551 259.66927396 262.63546933 261.45023134 C290.34520534 289.16058015 318.05899822 316.86686597 345.77587891 344.57006836 C376.91122176 375.69005226 408.04318683 406.81340994 439.17038643 437.94153911 C442.4892215 441.26044881 445.80806953 444.57934554 449.12692642 447.89823341 C449.9441192 448.71543784 450.76131197 449.53264227 451.60326816 450.37461047 C464.7566658 463.52803889 477.91326972 476.67825572 491.0709876 489.82736233 C504.29361404 503.04151391 517.5124956 516.25940259 530.72759639 529.48108044 C538.57880371 537.33598449 546.43276617 545.18810981 554.29072158 553.03626329 C559.54087937 558.28042503 564.78738691 563.52821992 570.03095669 568.77896889 C573.01764289 571.76953973 576.00586685 574.75852711 578.99854647 577.74310132 C581.72566182 580.46289525 584.44806033 583.18732261 587.16690495 585.91538367 C588.59695497 587.34794369 590.03187043 588.77564188 591.46702856 590.2030845 C597.39623579 596.16478084 602.76476943 602.42480026 608 609 C608.97633511 610.17402286 609.95568396 611.34556632 610.94140625 612.51171875 C656.7584799 667.61928596 685.9038709 742.86236412 686.203125 814.75390625 C686.20882507 815.8530687 686.21452515 816.95223114 686.22039795 818.08470154 C686.2297917 820.40500953 686.23635936 822.72533053 686.24023438 825.0456543 C686.24983032 828.50139472 686.28086302 831.95651076 686.3125 835.41210938 C686.40800062 855.45561423 684.73173392 875.33374167 680.75 895 C680.54020508 896.05501709 680.33041016 897.11003418 680.11425781 898.19702148 C674.52295611 925.45360875 665.99318983 951.87856132 654 977 C653.68208496 977.66757324 653.36416992 978.33514648 653.03662109 979.02294922 C645.72842592 994.243721 637.72830471 1009.18138536 628 1023 C627.4121875 1023.84256348 627.4121875 1023.84256348 626.8125 1024.70214844 C621.4692979 1032.35378082 615.96225389 1039.81443709 610 1047 C609.16855469 1048.00546875 608.33710938 1049.0109375 607.48046875 1050.046875 C586.05392704 1075.76416623 561.84147698 1098.33071517 534 1117 C533.28714844 1117.48146484 532.57429688 1117.96292969 531.83984375 1118.45898438 C475.47564709 1156.21997123 409.03492124 1175.21261893 341.5 1175.25 C339.85945145 1175.25101212 339.85945145 1175.25101212 338.1857605 1175.25204468 C321.27546138 1175.23548462 304.72501741 1174.72156578 288 1172 C286.92959473 1171.82839355 285.85918945 1171.65678711 284.75634766 1171.47998047 C252.14667693 1166.07962209 220.80091738 1156.28023047 191 1142 C189.75742432 1141.41049561 189.75742432 1141.41049561 188.48974609 1140.80908203 C144.69538859 1119.92616814 109.88488388 1089.05892227 75.9012249 1055.0234911 C72.88746838 1052.00626883 69.8707757 1048.99198444 66.85446864 1045.97731233 C61.57832668 1040.70323501 56.30402941 1035.42731866 51.03096199 1030.15016747 C43.19019428 1022.30334436 35.3465399 1014.45941146 27.50230606 1006.61605353 C14.30471236 993.41977133 1.10944063 980.22116968 -12.08449745 967.0212326 C-25.14326009 953.95654769 -38.20306097 940.89290208 -51.26424217 927.83063507 C-52.07713412 927.01767439 -52.89002606 926.2047137 -53.72755109 925.36711785 C-57.8560263 921.23830429 -61.98451999 917.10950922 -66.1130208 912.98072127 C-95.33540515 883.75623795 -124.55547164 854.52943815 -153.77416992 825.30126953 C-182.15515522 796.91109605 -210.53719353 768.52197596 -238.9206543 740.13427734 C-239.79595528 739.25884484 -240.67125626 738.38341233 -241.57308151 737.48145157 C-250.36342274 728.68979179 -259.15378534 719.89815337 -267.9441636 711.10653061 C-285.85028462 693.19787356 -303.75626302 675.2890739 -321.66215515 657.38018799 C-322.48539238 656.55681347 -323.30862961 655.73343895 -324.15681342 654.88511369 C-379.1069321 599.92579838 -434.05372635 544.9631594 -489 490 C-487.22016364 486.1790985 -484.81082507 483.53239492 -481.84116173 480.59227276 C-481.30772473 480.05622847 -480.77428773 479.52018419 -480.22468597 478.96789613 C-478.42676128 477.16364939 -476.62176246 475.36664964 -474.81674194 473.56950378 C-473.5168545 472.2680288 -472.21740501 470.96611627 -470.91835749 469.66380292 C-467.33992248 466.07893863 -463.75525285 462.50036524 -460.16955638 458.92276609 C-456.30622776 455.06600288 -452.44865228 451.20349295 -448.59036255 447.34169006 C-441.02682696 439.77310613 -433.45794986 432.20988552 -425.88727038 424.64844819 C-417.07249443 415.84404703 -408.26293863 407.03443047 -399.45359214 398.22459737 C-383.25749025 382.02797936 -367.05611245 365.83664665 -350.85226785 349.64777552 C-336.06570854 334.87482978 -321.28283597 320.09820539 -306.50341797 305.31811523 C-305.55509281 304.36974967 -304.60676763 303.42138413 -303.65844242 302.47301861 C-302.95518836 301.76973402 -302.95518836 301.76973402 -302.23772714 301.05224165 C-284.40421649 283.21796936 -266.56749657 265.38691041 -248.72900908 247.5576162 C-242.58746103 241.41908321 -236.44688868 235.27957522 -230.30662155 229.13976097 C-222.81957045 221.65339267 -215.33062706 214.16892306 -207.8393306 206.68680283 C-204.01743367 202.86951738 -200.19631936 199.05145749 -196.37735748 195.2312355 C-192.87940567 191.73218551 -189.3791434 188.23546402 -185.87704141 184.74056796 C-184.61230725 183.47764112 -183.34840472 182.21388076 -182.08543257 180.94919183 C-176.45331243 175.31026574 -170.83181504 169.72024724 -164.76689494 164.54092759 C-161.65470654 161.82675548 -158.76167269 158.8958106 -155.84985352 155.97010803 C-155.17739908 155.29850802 -154.50494465 154.62690802 -153.81211281 153.93495649 C-151.58200026 151.7064779 -149.35545698 149.47446852 -147.12890625 147.24243164 C-145.52205026 145.6352933 -143.91497349 144.02837567 -142.30769348 142.42166138 C-137.9610229 138.07527691 -133.61743566 133.72582298 -129.27440643 129.37580037 C-124.72916625 124.82429571 -120.18108131 120.27563546 -115.63330078 115.72666931 C-108.00571059 108.09632729 -100.37986735 100.46424399 -92.75537109 92.83081055 C-84.90531225 84.97155975 -77.05419417 77.11336957 -69.20166016 69.2565918 C-68.47449242 68.52902997 -68.47449242 68.52902997 -67.73263443 67.78676993 C-65.30041314 65.35324352 -62.86817112 62.91973782 -60.43591881 60.48624241 C-40.28739915 40.32737158 -20.14254374 20.16484182 0 0 Z " fill="#FF0087" transform="translate(2495,1503)"/>
<path d="M0 0 C1.60503387 -0.00101212 1.60503387 -0.00101212 3.24249268 -0.00204468 C20.00942671 0.01473009 36.41527433 0.56532789 53 3.25 C54.07185547 3.42160645 55.14371094 3.59321289 56.24804688 3.77001953 C112.85638874 13.14609036 166.792355 35.7338527 212 71.25 C212.59989746 71.71986328 213.19979492 72.18972656 213.81787109 72.67382812 C215.82393821 74.25207535 217.81960763 75.84265569 219.8125 77.4375 C220.40369629 77.90534912 220.99489258 78.37319824 221.60400391 78.85522461 C233.92510298 88.8306072 245.13231125 100.23246972 256.32223511 111.43852234 C257.58662416 112.7010366 258.85122734 113.96333645 260.11602223 115.22544414 C263.54445767 118.64783862 266.96984281 122.07327104 270.39466476 125.49928105 C274.10653111 129.21135336 277.821268 132.92055137 281.53559875 136.63015747 C288.79188933 143.87818549 296.0454417 151.12894766 303.29788189 158.38082822 C309.19395122 164.2764207 315.09081304 170.17121935 320.98822403 176.06546974 C337.7342414 192.8026958 354.4781765 209.54200094 371.21942292 226.28399911 C372.11961101 227.18422716 373.01979911 228.0844552 373.94726562 229.01196289 C374.84855981 229.91329796 375.749854 230.81463303 376.67846014 231.74328128 C391.30433129 246.36955941 405.93519272 260.99083443 420.56830691 275.60986581 C435.61872458 290.64591387 450.66540451 305.68569341 465.70820725 320.72935992 C474.14382946 329.1653137 482.58097562 337.59973002 491.02215195 346.03012657 C498.20290262 353.201765 505.3801682 360.37686888 512.55297188 367.55645593 C516.20930705 371.21605141 519.86721408 374.87403737 523.52952385 378.52765465 C526.88669798 381.87694241 530.23915795 385.23087694 533.58804013 388.58845506 C534.79528896 389.79723406 536.00420191 391.00435404 537.21501146 392.20956632 C544.28180879 399.24587354 550.80940625 406.41785583 557 414.25 C557.87466069 415.28965558 558.75487714 416.32470778 559.64453125 417.3515625 C607.29301789 472.81268389 635.61173937 549.19876841 637 622.25 C637.02046387 623.19133789 637.04092773 624.13267578 637.06201172 625.10253906 C638.54752659 705.22212614 614.7228837 785.4651797 564 848.25 C563.16894755 849.29401358 562.33819603 850.3382668 561.5078125 851.3828125 C556.55265274 857.53818397 551.32183597 863.41166001 546 869.25 C544.47900748 870.9581916 542.95817362 872.66652449 541.4375 874.375 C535.7375052 880.69843173 529.82202055 886.6894969 523.35546875 892.23046875 C521.57321733 893.75853506 519.80786565 895.30634156 518.05078125 896.86328125 C455.93036968 951.60561946 374.3837734 980.86064649 291.9375 980.5625 C290.32201263 980.55926727 290.32201263 980.55926727 288.67388916 980.55596924 C272.26269508 980.50337023 256.21310134 980.00580968 240 977.25 C238.15897705 976.94400879 238.15897705 976.94400879 236.28076172 976.63183594 C218.84823497 973.66413779 201.83239498 969.7092376 185 964.25 C183.7325293 963.846604 183.7325293 963.846604 182.43945312 963.43505859 C129.83091187 946.54288166 83.23243221 915.88914289 44.41838074 876.92234802 C43.11381994 875.62009813 41.80882456 874.31828346 40.50343877 873.01686054 C36.95647678 869.47816834 33.4156825 865.93336302 29.87597096 862.3874203 C26.04252922 858.54942287 22.20329898 854.71722285 18.36483765 850.88424683 C10.86239103 843.39066202 3.36532298 835.89171874 -4.12978718 828.39079671 C-10.22314256 822.29291318 -16.31846108 816.1969984 -22.41516685 810.10246468 C-23.28491028 809.23302772 -24.15465371 808.36359076 -25.05075299 807.46780722 C-26.81793048 805.70126922 -28.58511244 803.93473569 -30.35229882 802.16820658 C-46.89558828 785.63061073 -63.43275862 769.08690687 -79.96781995 752.54108471 C-94.14296297 738.35700233 -108.32334784 724.17817842 -122.50756836 710.00317383 C-139.00134261 693.52011116 -155.49185671 677.03379805 -171.97720736 660.5423103 C-173.73610472 658.78277587 -175.49500624 657.02324561 -177.25391197 655.26371956 C-178.11921047 654.39811251 -178.98450897 653.53250546 -179.87602863 652.6406679 C-185.96205179 646.55292082 -192.05038653 640.46749152 -198.13962746 634.38296318 C-205.56204392 626.9661652 -212.98086723 619.54579522 -220.3951566 612.12087255 C-224.17504297 608.33574326 -227.95648618 604.55220605 -231.74231148 600.77301598 C-235.21239899 597.3089183 -238.67778011 593.84018187 -242.13957485 590.3677975 C-243.38790854 589.11724267 -244.63790282 587.86834262 -245.88978443 586.62133949 C-253.06305495 579.47386715 -259.7277807 572.21439562 -266 564.25 C-266.99964976 563.04073951 -268.00251789 561.83411355 -269.01171875 560.6328125 C-285.88876222 540.21359723 -299.71368635 517.18467391 -311 493.25 C-311.36335449 492.48075195 -311.72670898 491.71150391 -312.10107422 490.91894531 C-333.3499511 445.59404886 -344.26385155 395.94464683 -344.1875 345.875 C-344.18659363 344.76499634 -344.18659363 344.76499634 -344.18566895 343.63256836 C-344.00799372 262.86401166 -315.55238958 182.1680095 -262 121.25 C-261.38898438 120.53972656 -260.77796875 119.82945312 -260.1484375 119.09765625 C-249.50969996 106.76983004 -238.42651474 94.79834204 -226 84.25 C-225.09121094 83.45207031 -224.18242188 82.65414062 -223.24609375 81.83203125 C-204.0267294 65.07407803 -182.48194607 51.19240975 -160 39.25 C-159.36336426 38.90904297 -158.72672852 38.56808594 -158.07080078 38.21679688 C-109.36801789 12.32776143 -54.94026392 0.03110284 0 0 Z " fill="#FF0087" transform="translate(1177,326.75)"/>
<path d="M0 0 C50.49 0 100.98 0 153 0 C153 21.12 153 42.24 153 64 C119.01 64 85.02 64 50 64 C49.67 69.28 49.34 74.56 49 80 C48.51136488 84.84077897 48.00160545 89.66866627 47.4375 94.5 C47.29892578 95.71558594 47.16035156 96.93117188 47.01757812 98.18359375 C46.68199596 101.12283067 46.34279221 104.06159683 46 107 C47.02996094 106.52949219 48.05992187 106.05898437 49.12109375 105.57421875 C73.84421648 94.62557476 100.09518666 94.35858357 125.5703125 103.5625 C143.1992132 110.95137865 157.68618619 124.78432214 166 142 C176.58473791 168.02366676 177.03122839 196.84405436 166.21386719 222.89306641 C155.86162694 246.3188843 137.42304485 264.01445906 113.80493164 273.73754883 C84.81279597 284.83207642 52.29976487 282.63617078 23.75 271.3125 C0.74584846 260.81702363 -16.12248962 243.20166763 -26 220 C-27.61896962 215.63747447 -29 211.67128831 -29 207 C-17.50465347 203.80439988 -5.92401401 201.06289163 5.71069336 198.42578125 C8.72176225 197.74222194 11.7310054 197.05098383 14.74023438 196.359375 C16.66395746 195.92141335 18.58778189 195.48389658 20.51171875 195.046875 C21.85383675 194.73759064 21.85383675 194.73759064 23.22306824 194.42205811 C24.47136162 194.14111298 24.47136162 194.14111298 25.74487305 193.85449219 C26.4724028 193.68890808 27.19993256 193.52332397 27.94950867 193.35272217 C30 193 30 193 34 193 C34.63615234 194.41152344 34.63615234 194.41152344 35.28515625 195.8515625 C39.8784173 205.83823866 39.8784173 205.83823866 48 213 C48.62777344 213.38414062 49.25554688 213.76828125 49.90234375 214.1640625 C59.83005454 219.62921814 71.80757358 220.63433585 82.7421875 217.8125 C91.90958381 214.51350617 97.78527046 209.2123873 102.21484375 200.65234375 C106.94513024 190.03024135 107.09837818 178.58449734 103.1484375 167.640625 C99.25903404 159.22939474 92.22098696 153.97018376 83.6875 150.75 C69.08673439 147.78035276 54.49636654 149.11803446 41.75390625 157.47265625 C40.51405103 158.34031322 39.29380818 159.23778112 38.109375 160.1796875 C32.31862706 162.43164503 23.52774769 159.13220153 17.62890625 157.8203125 C16.66597153 157.60688202 15.7030368 157.39345154 14.71092224 157.17355347 C12.69098294 156.72354785 10.67154358 156.27129278 8.65258789 155.81689453 C5.55025167 155.1222575 2.44425301 154.44590278 -0.66210938 153.76953125 C-2.62785624 153.32924892 -4.59336043 152.88788143 -6.55859375 152.4453125 C-7.49078232 152.24519562 -8.42297089 152.04507874 -9.38340759 151.83889771 C-10.23842361 151.64214447 -11.09343964 151.44539124 -11.97436523 151.24267578 C-12.72967026 151.0747049 -13.48497528 150.90673401 -14.26316833 150.7336731 C-14.83632278 150.49156097 -15.40947723 150.24944885 -16 150 C-17.11976413 146.6407076 -16.91899384 144.82212721 -16.51956177 141.32670593 C-16.38775513 140.14485718 -16.25594849 138.96300842 -16.12014771 137.74534607 C-15.96851166 136.44710403 -15.81687561 135.148862 -15.66064453 133.8112793 C-15.50421714 132.43149082 -15.34836779 131.05163671 -15.1930542 129.67172241 C-14.76918137 125.92091531 -14.33708755 122.17109577 -13.90346003 118.42140555 C-13.45094025 114.49693424 -13.00566349 110.57164119 -12.55953979 106.6464386 C-11.80888326 100.05097667 -11.05334065 93.45608972 -10.29443359 86.86157227 C-9.32124818 78.4049429 -8.35551733 69.94748061 -7.39236641 61.48970318 C-6.56377659 54.2135769 -5.73235089 46.93777514 -4.90015936 39.66206002 C-4.72174608 38.10190735 -4.54342348 36.5417443 -4.36519098 34.98157096 C-3.85658362 30.52962332 -3.34646008 26.07785512 -2.83382416 21.62636948 C-2.60518269 19.63810797 -2.37802251 17.64967629 -2.15090942 15.66123962 C-2.01346313 14.4709314 -1.87601685 13.28062317 -1.73440552 12.054245 C-1.61603899 11.02388972 -1.49767246 9.99353445 -1.37571907 8.93195629 C-0.99281907 5.94396301 -0.49523994 2.97143966 0 0 Z " fill="#FFFFFF" transform="translate(3354,59)"/>
<path d="M0 0 C2.16154287 -0.00958556 4.32208298 -0.040598 6.48339844 -0.07226562 C31.32919608 -0.26338169 53.87061817 7.19094689 72.32714844 24.24023438 C89.59512999 41.84351654 94.63964844 64.51069327 94.63964844 88.42871094 C94.45614289 104.60639279 90.26694343 117.25319035 82.32714844 131.24023438 C81.95847656 131.89491699 81.58980469 132.54959961 81.20996094 133.22412109 C72.83081159 147.87679735 61.92773458 160.54219111 50.49511719 172.88867188 C48.5180975 175.03311485 46.60257705 177.21555005 44.70214844 179.42773438 C41.79227539 182.78160214 38.70832287 185.90668665 35.51464844 188.99023438 C32.31624209 192.28002376 29.3485666 195.78718505 26.32714844 199.24023438 C21.04714844 204.52023437 15.76714844 209.80023438 10.32714844 215.24023438 C39.36714844 215.57023438 68.40714844 215.90023437 98.32714844 216.24023438 C98.32714844 237.69023437 98.32714844 259.14023437 98.32714844 281.24023438 C35.95714844 281.24023438 -26.41285156 281.24023438 -90.67285156 281.24023438 C-90.67285156 226.24023438 -90.67285156 226.24023438 -81.95019531 212.18164062 C-78.20215693 208.80827321 -74.60373201 205.81582162 -70.61035156 202.80273438 C-68.68183805 201.16039684 -66.765717 199.50339552 -64.86230469 197.83203125 C-61.38544497 194.80335878 -57.86048869 191.88285857 -54.23120117 189.03930664 C-50.42394921 185.99430557 -47.2328019 182.72494195 -44.12110901 178.97789001 C-42.11982378 176.57669776 -39.91102116 174.41950477 -37.67285156 172.24023438 C-34.21353331 168.81716646 -30.94367411 165.33064835 -27.78222656 161.63476562 C-24.81739998 158.26913841 -21.74219622 155.01042206 -18.67285156 151.74023438 C-14.47113301 147.25891194 -10.29970969 142.7695866 -6.29785156 138.10742188 C-4.36125831 135.88220174 -2.35774463 133.72351226 -0.36035156 131.55273438 C16.58931158 112.77865262 16.58931158 112.77865262 24.51464844 89.50195312 C23.98562252 82.2388681 21.88086661 76.95366114 17.32714844 71.24023438 C11.39317822 66.19004696 4.65850246 64.71850835 -2.99316406 64.93945312 C-11.31303557 65.87331625 -17.62869016 68.85968871 -22.94628906 75.38085938 C-26.28582634 80.91149577 -27.97470989 87.04365011 -29.67285156 93.24023438 C-38.00954285 91.94407821 -46.21723975 90.30905746 -54.43847656 88.41992188 C-55.59788757 88.15639923 -56.75729858 87.89287659 -57.95184326 87.62136841 C-61.60959201 86.78922547 -65.26623014 85.95231554 -68.92285156 85.11523438 C-71.42147722 84.54590675 -73.92017451 83.9768934 -76.41894531 83.40820312 C-82.50441285 82.02250921 -88.58897893 80.63291305 -94.67285156 79.24023438 C-92.42691478 60.14420326 -84.75478009 42.39250251 -71.67285156 28.24023438 C-71.08761719 27.58667969 -70.50238281 26.933125 -69.89941406 26.25976562 C-52.03960273 7.26799442 -25.23647942 0.0673272 0 0 Z " fill="#FFFFFF" transform="translate(3197.6728515625,53.759765625)"/>
</svg>
